<?xml version="1.0" encoding="utf-8"?>
<!-- Generator: Adobe Illustrator 24.3.0, SVG Export Plug-In . SVG Version: 6.00 Build 0)  -->
<svg version="1.1" id="Capa_1" xmlns="http://www.w3.org/2000/svg" xmlns:xlink="http://www.w3.org/1999/xlink" x="0px" y="0px"
	 viewBox="0 0 490 490" style="enable-background:new 0 0 490 490;" xml:space="preserve">
<g id="Capa_2_1_">
	<g id="Capa_1-2">
		<path d="M465.1,115.6c-15.5-9.6-34.8-10.5-51.1-2.3l-50.4,25.2c-32-9.7-62.5-23.7-90.7-41.6c-17-10.8-38.7-10.8-55.7,0
			c-28.2,17.9-58.8,31.9-90.7,41.6L76,113.3c-25.9-13-57.5-2.5-70.4,23.4C1.9,144.1,0,152.1,0,160.3v30.9c0.1,38.5,18.2,74.8,49,98
			l14,10.5l0,0c23.3,61,81.7,101.4,147,101.5h70c65.3-0.1,123.8-40.5,147-101.5l14-10.5l0,0c30.8-23.2,48.9-59.5,49-98v-30.9
			C490.1,142.1,480.6,125.1,465.1,115.6z M35,191.2v-30.9c0-9.7,7.9-17.5,17.5-17.5c2.7,0,5.4,0.6,7.8,1.8l16.6,8.3
			c-15.1,9.6-24.3,26.2-24.4,44.1v46.3l0,0C41.2,228.3,35.1,210,35,191.2z M402.5,243.7c-0.1,67.6-54.9,122.4-122.5,122.5h-70
			c-67.6-0.1-122.4-54.9-122.5-122.5v-46.6c-0.1-8.5,6-15.7,14.4-17.1c47.7-8.9,93.1-27,133.9-53.4c5.6-3.6,12.8-3.6,18.5,0
			c40.7,26.3,86.2,44.4,133.9,53.3c8.4,1.4,14.4,8.7,14.4,17.2V243.7z M455,191.2c-0.1,18.8-6.2,37.1-17.5,52.2v-46.3
			c-0.1-17.9-9.3-34.5-24.4-44.1l16.6-8.3c8.6-4.3,19.2-0.8,23.5,7.8c1.2,2.4,1.8,5.1,1.8,7.8V191.2z M349.2,278.4
			c2.8,9.2-2.4,19-11.6,21.8c0,0,0,0,0,0c-60.5,17.7-124.7,17.7-185.2,0c-9.1-3.2-14-13.1-10.8-22.2c3-8.7,12.2-13.6,21-11.2
			c53.8,15.7,111,15.7,164.8,0C336.6,264,346.4,269.2,349.2,278.4C349.2,278.4,349.2,278.4,349.2,278.4L349.2,278.4z M349.2,208.4
			c2.8,9.2-2.4,19-11.6,21.8c0,0,0,0,0,0c-30.1,8.9-61.3,13.4-92.6,13.3c-31.4,0.1-62.6-4.3-92.6-13.3c-9.1-3.2-14-13.1-10.8-22.2
			c3-8.7,12.2-13.6,21-11.2c53.8,15.7,111,15.7,164.8,0c9.2-2.9,18.9,2.3,21.8,11.5C349.2,208.4,349.2,208.4,349.2,208.4
			L349.2,208.4z"/>
	</g>
</g>
</svg>
