<svg xmlns="http://www.w3.org/2000/svg" viewBox="0 0 478.56 480.56"><g id="Capa_2" data-name="Capa 2"><g id="Capa_1-2" data-name="Capa 1"><path d="M473.76,475.47a16.81,16.81,0,0,0,0-23.52L377,354.65a10.25,10.25,0,0,1-1.76-12.16,84,84,0,0,0-14-100l-161-161a10.31,10.31,0,0,1,.27-14.85h0A16.83,16.83,0,0,0,177,42.59L128.25,91.3a10.3,10.3,0,0,1-14.58,0L98,75.64a10.32,10.32,0,0,1,0-14.58l32.47-32.47A16.83,16.83,0,1,0,106.4,5.07L4,107.48a8.74,8.74,0,0,0-1.14,1.36,16.8,16.8,0,0,0,23.31,23.3A9.16,9.16,0,0,0,27.51,131L59.28,99.23a10.31,10.31,0,0,1,14.65.06l15.79,16.09a10.3,10.3,0,0,1-.06,14.51L40.88,178.67A16.83,16.83,0,1,0,65,202.19l.53-.53a10.32,10.32,0,0,1,14.6,0L240.8,362.91a84,84,0,0,0,100,14,10.26,10.26,0,0,1,12.18,1.79l96.74,96.74a16.78,16.78,0,0,0,24.08,0ZM264.88,338.83,103.63,178.12a10.31,10.31,0,0,1,0-14.59l58.21-58.21a10.32,10.32,0,0,1,14.58,0l15.1,15.1a10.32,10.32,0,0,1,0,14.58l-39.74,39.74a10.3,10.3,0,0,0,0,14.58l8.94,8.94a10.3,10.3,0,0,0,14.58,0L215,158.52a10.32,10.32,0,0,1,14.58,0l2.78,2.78a10.32,10.32,0,0,1,0,14.58l-27.51,27.51a10.3,10.3,0,0,0-.08,14.49l9.11,9.33a10.3,10.3,0,0,0,14.67.08L255.91,200a10.32,10.32,0,0,1,14.58,0l2.78,2.78a10.32,10.32,0,0,1,0,14.58l-39.74,39.74a10.3,10.3,0,0,0,0,14.58l8.94,8.94a10.3,10.3,0,0,0,14.58,0l39.74-39.74a10.32,10.32,0,0,1,14.58,0l2.77,2.78a10.3,10.3,0,0,1,0,14.58l-27.41,27.42a10.3,10.3,0,0,0,0,14.58l9,9a10.32,10.32,0,0,0,14.49.1l23.81-23.18a10.33,10.33,0,0,1,17.3,5.34,50.36,50.36,0,0,1-13.68,46.22L336,339.4a50.41,50.41,0,0,1-71.12,0Z"/></g></g></svg>